<svg width="110" height="47" viewBox="0 0 110 47" fill="none" xmlns="http://www.w3.org/2000/svg">
<g clip-path="url(#clip0)">
<path fill-rule="evenodd" clip-rule="evenodd" d="M89.0023 0C89.0023 0 90.9008 3.9824 91.8378 6.65979C92.7748 9.33719 93.6995 12.373 93.6995 12.373C93.6995 12.373 95.5766 12.0973 101.023 9.50568C104.142 8.04665 107.14 6.34531 109.991 4.4174C108.501 7.34307 106.352 9.88474 103.712 11.843C99.386 15.0106 95.6319 15.3567 95.6319 15.3567C95.6319 15.3567 96.2463 16.19 98.8085 18.4201C101.371 20.6503 102.538 21.1373 102.538 21.1373C102.538 21.1373 95.423 20.6043 91.9239 17.9208C88.4247 15.2373 88.2158 11.5643 88.2865 9.25142C88.3571 6.93856 88.864 2.22095 88.9347 1.10894L89.0023 0Z" fill="#EF8127"/>
<path fill-rule="evenodd" clip-rule="evenodd" d="M92.9191 25.3064C92.9191 25.3064 95.7547 24.2005 97.9359 24.0811C100.117 23.9616 100.867 24.5345 100.575 26.5532C100.283 28.572 99.1985 30.5019 97.8622 32.1653C96.5258 33.8288 95.3461 35.3666 95.7547 35.9762C96.1633 36.5858 98.0404 36.5092 99.3952 36.1569C100.685 35.7774 101.945 35.3023 103.165 34.7355C103.512 34.564 103.616 34.9959 102.504 36.0528C101.392 37.1096 98.1632 38.5678 96.2524 39.0518C94.3415 39.5358 92.4829 39.4868 91.5981 38.5157C90.7134 37.5446 91.251 35.7771 91.8593 34.2852C92.4675 32.7933 93.7701 30.3702 92.274 29.347C90.7779 28.3239 89.0913 28.5505 88.5414 28.5505C87.9915 28.5505 88.1451 28.1676 89.1558 27.3252C90.1665 26.4828 91.6442 25.7935 92.9314 25.2911L92.9191 25.3064ZM74.7691 5.31173C74.7691 5.31173 74.3175 9.75363 72.6524 16.5605C70.9874 23.3673 70.121 27.1077 68.8154 32.3798C67.5097 37.6519 66.7325 40.3997 67.4698 40.6877C68.2071 40.9756 69.906 40.3047 70.7723 39.7932C71.6386 39.2816 71.7953 39.2172 71.8936 38.3871C71.9919 37.5569 72.1824 36.549 72.1824 36.549L76.1884 33.697C76.1884 33.697 76.9872 36.6716 80.7044 37.3731C84.4217 38.0746 87.6566 33.6786 88.4277 32.68C89.1988 31.6813 89.4169 30.6735 89.1343 30.7255C88.8517 30.7776 87.1743 32.3982 84.0776 32.8883C80.9809 33.3784 80.0839 31.6201 80.0839 31.6201C80.0839 31.6201 83.3895 29.2459 84.6367 25.4259C85.4651 23.0219 85.642 20.4423 85.1498 17.9482C85.0374 17.2649 84.7636 16.6181 84.351 16.0611C82.9472 19.4772 81.219 22.7515 79.1899 25.8395C75.9212 30.7623 73.3529 32.8852 73.0457 32.8852C72.7385 32.8852 75.6662 23.9095 76.852 19.9118C78.0378 15.9141 78.7414 13.108 77.9733 9.94356C77.513 8.05833 76.3723 6.40829 74.7691 5.30867V5.31173ZM54.9632 3.78004C54.9632 3.78004 57.0738 4.31307 58.0353 7.8911C58.9969 11.4691 57.5315 14.7102 55.1168 21.0636C52.7021 27.4171 51.5624 33.1977 51.7989 33.1977C52.0355 33.1977 54.0785 31.666 57.5991 26.6451C59.6709 23.7471 61.3014 20.5593 62.4377 17.1854C62.4377 17.1854 62.9476 17.6112 63.5068 19.0234C64.0659 20.4356 64.5513 23.0702 63.1995 26.2132C61.8478 29.3562 58.6405 31.7947 58.6405 31.7947C58.6405 31.7947 59.897 33.066 62.4254 33.02C64.9537 32.9741 67.0888 30.989 67.0888 30.989C67.1544 31.243 67.1426 31.5106 67.055 31.7579C66.9229 32.294 66.542 32.9618 65.4668 34.132C64.3915 35.3022 61.2211 38.5464 58.5084 37.8081C55.7958 37.0698 54.954 34.1994 54.954 34.1994L51.0309 37.0085C51.0119 37.5007 50.9668 37.9915 50.8957 38.479C50.8282 38.6444 47.9465 40.6509 47.2092 41.0522C46.4719 41.4535 46.0019 41.0185 46.0019 40.3844C46.2947 37.1088 46.7789 33.853 47.4519 30.6336C48.2322 27.2823 49.4611 22.9354 51.375 16.3154C53.2889 9.69543 54.9632 3.78004 54.9632 3.78004V3.78004ZM34.4446 34.7968C36.4907 33.8576 38.4535 32.7477 40.3123 31.4791C43.2585 29.4512 45.1202 26.6849 45.4028 25.7169C45.6854 24.7489 44.4812 22.3809 40.2386 21.9459C35.996 21.5109 32.5245 23.7655 30.8902 27.4048C29.2558 31.0441 29.2189 33.4703 29.2189 33.4703C29.2189 33.4703 27.9901 33.887 27.1115 34.1167C26.2328 34.3465 25.6092 34.3066 26.3496 34.855C27.0213 35.2887 27.7789 35.5729 28.5707 35.6882C28.8737 35.7548 29.1822 35.7928 29.4923 35.8016C29.4923 35.8016 29.8702 38.1726 31.2772 39.5573C32.6843 40.9419 35.271 41.0369 37.4215 40.219C39.5719 39.401 42.4382 37.6243 43.6916 36.353C44.9451 35.0817 44.9635 34.6099 44.6594 34.76C44.3552 34.9101 41.32 36.4541 38.4322 36.7114C35.4123 36.9779 34.4384 34.7968 34.4384 34.7968H34.4446ZM33.8148 31.3658C33.8148 31.3658 33.3233 26.5134 36.1527 25.2053C38.9821 23.8973 40.5612 26.1243 40.5612 26.1243C39.6778 27.1696 38.6907 28.123 37.615 28.9702C36.4185 29.8718 35.1472 30.6701 33.8148 31.3566V31.3658ZM32.5061 1.62035C32.5061 1.62035 30.1651 6.37166 28.3096 15.5496C26.454 24.7274 24.2513 38.4146 24.0086 39.9433C23.9523 40.4849 23.7824 41.0086 23.5098 41.4805C23.2372 41.9523 22.8681 42.3616 22.4265 42.6819C21.7015 43.2946 20.6139 43.2946 19.0472 41.8364C17.4804 40.3783 14.2854 34.5915 11.9076 28.7129C9.52977 22.8343 8.63886 22.2798 8.63886 22.2798C8.63886 22.2798 7.63121 28.961 6.48838 33.4703C5.34556 37.9796 3.74499 43.4937 2.80185 45.1847C1.85871 46.8757 1.91401 47.1974 0.958584 45.6258C0.505356 44.9063 0.204034 44.1022 0.0730369 43.2626C-0.0579604 42.423 -0.0158819 41.5656 0.196701 40.7428C1.32737 36.2987 2.2297 31.7998 2.90016 27.2639C3.74499 21.226 3.86787 15.9509 3.37941 12.6118C2.89094 9.27268 5.43772 8.66613 6.72801 8.18212C7.71421 7.84624 8.72624 7.59113 9.75404 7.41934C9.75404 7.41934 11.327 13.6166 13.4651 20.5919C15.6033 27.5672 17.2961 31.3382 18.6263 33.553C19.9565 35.7679 20.6447 36.1692 20.7245 35.9272C20.8044 35.6852 22.2606 30.2538 22.9426 21.6365C23.4802 14.8971 23.7076 8.8193 25.4003 5.55374C25.8192 4.73378 26.4476 4.03849 27.2221 3.53803C30.073 1.73983 32.4539 1.55602 32.5061 1.62035V1.62035Z" fill="#231F20"/>
</g>
<defs>
<clipPath id="clip0">
<rect width="110" height="46.64" fill="white"/>
</clipPath>
</defs>
</svg>
